<svg width="50" height="50" viewBox="0 0 50 50" fill="none" xmlns="http://www.w3.org/2000/svg">
<path d="M25 2C12.3093 2 2 12.3093 2 25C2 37.6907 12.3093 48 25 48C37.6907 48 48 37.6907 48 25C48 12.3093 37.6907 0.999999 25 2ZM25 4C36.6098 4 46 13.3902 46 25C46 36.6098 36.6098 46 25 46C13.3902 46 4 36.6098 4 25C4 13.3902 13.3902 4 25 4Z" fill="#93B1FF"/>
<path d="M16.4898 22.7595L16.9175 23.1872L16.4898 22.7595C15.8367 23.4125 15.8367 24.4714 16.4898 25.1245L16.9175 24.6967L16.4898 25.1245L22.1827 30.8173C22.8358 31.4705 23.8946 31.4705 24.5477 30.8173L34.5102 20.8548C35.1633 20.2017 35.1633 19.1429 34.5102 18.4898C33.8572 17.8367 32.7983 17.8367 32.1453 18.4898L23.3652 27.2699L18.8548 22.7595C18.2017 22.1064 17.1429 22.1064 16.4898 22.7595Z" fill="#93B1FF"/>
<path d="M16.4898 22.7595L16.9175 23.1872L16.4898 22.7595ZM16.4898 22.7595C15.8367 23.4125 15.8367 24.4714 16.4898 25.1245L16.9175 24.6967L16.4898 25.1245L22.1827 30.8173C22.8358 31.4705 23.8946 31.4705 24.5477 30.8173L34.5102 20.8548C35.1633 20.2017 35.1633 19.1429 34.5102 18.4898C33.8572 17.8367 32.7983 17.8367 32.1453 18.4898L23.3652 27.2699L18.8548 22.7595C18.2017 22.1064 17.1429 22.1064 16.4898 22.7595Z" stroke="#93B1FF" stroke-linecap="round" stroke-linejoin="round"/>
</svg>
