<?xml version="1.0" standalone="no"?>
<!DOCTYPE svg PUBLIC "-//W3C//DTD SVG 20010904//EN"
 "http://www.w3.org/TR/2001/REC-SVG-20010904/DTD/svg10.dtd">
<svg version="1.0" xmlns="http://www.w3.org/2000/svg"
 width="50px" height="60pt" viewBox="0 0 512.000000 512.000000"
 preserveAspectRatio="xMidYMid meet">
<metadata>
Created by potrace 1.16, written by Peter Selinger 2001-2019
</metadata>
<g transform="translate(0.000000,512.000000) scale(0.100000,-0.100000)"
fill="#000000" stroke="none">
<path d="M641 4481 l-641 -641 177 -190 c98 -105 180 -190 183 -190 3 1 151
153 330 340 l325 338 3 -2069 2 -2069 260 0 260 0 2 2069 3 2069 325 -338
c179 -187 327 -339 330 -340 3 0 86 86 184 191 l179 191 -640 640 -641 640
-641 -641z"/>
<path d="M3578 3051 l-3 -2069 -325 338 c-179 187 -327 339 -330 340 -3 0 -85
-85 -182 -188 l-176 -189 640 -640 640 -641 639 639 639 639 -177 190 c-98
105 -180 190 -183 190 -3 -1 -151 -153 -330 -340 l-325 -338 -3 2069 -2 2069
-260 0 -260 0 -2 -2069z"/>
</g>
</svg>
