<svg width="50" height="50" viewBox="0 0 50 50" fill="none" xmlns="http://www.w3.org/2000/svg">
<path d="M23 0.5616H23.0196L23.0392 0.560059C35.3883 -0.411716 45.5 10.595 45.5 23.0308C45.5 35.4277 35.4152 45.5 23 45.5C10.5848 45.5 0.5 35.4277 0.5 23.0308C0.5 10.6339 10.5848 0.5616 23 0.5616ZM44.5 23.0308C44.5 11.1597 34.8853 1.55892 23 1.55892C11.1147 1.55892 1.5 11.1597 1.5 23.0308C1.5 34.9019 11.1147 44.5027 23 44.5027C34.8853 44.5027 44.5 34.9019 44.5 23.0308Z" fill="#7588FF" stroke="#7588FF"/>
<line x1="12" y1="23.85" x2="35" y2="23.85" stroke="#7588FF" stroke-width="2.3"/>
</svg>
